<mxfile host="65bd71144e">
    <diagram id="MwJyzXVFlUW5A7y8QUJ_" name="Page-1">
        <mxGraphModel dx="2574" dy="1620" grid="1" gridSize="10" guides="1" tooltips="1" connect="1" arrows="1" fold="1" page="1" pageScale="1" pageWidth="827" pageHeight="1169" math="0" shadow="0">
            <root>
                <mxCell id="0"/>
                <mxCell id="1" parent="0"/>
                <mxCell id="4" value="a-z, A-Z" style="edgeStyle=none;html=1;entryX=0.5;entryY=1;entryDx=0;entryDy=0;" parent="1" source="2" target="3" edge="1">
                    <mxGeometry relative="1" as="geometry"/>
                </mxCell>
                <mxCell id="9" value="=" style="edgeStyle=none;html=1;fontSize=11;" parent="1" source="2" target="8" edge="1">
                    <mxGeometry relative="1" as="geometry"/>
                </mxCell>
                <mxCell id="11" value=":" style="edgeStyle=none;html=1;entryX=0.088;entryY=0.296;entryDx=0;entryDy=0;entryPerimeter=0;fontSize=11;" parent="1" source="2" target="10" edge="1">
                    <mxGeometry relative="1" as="geometry">
                        <mxPoint x="-690" y="100" as="sourcePoint"/>
                    </mxGeometry>
                </mxCell>
                <mxCell id="13" value=";" style="edgeStyle=none;html=1;fontSize=11;" parent="1" source="2" target="12" edge="1">
                    <mxGeometry relative="1" as="geometry"/>
                </mxCell>
                <mxCell id="16" value="(" style="edgeStyle=none;html=1;fontSize=11;" parent="1" source="2" target="14" edge="1">
                    <mxGeometry relative="1" as="geometry"/>
                </mxCell>
                <mxCell id="17" value=")" style="edgeStyle=none;html=1;entryX=0.213;entryY=-0.008;entryDx=0;entryDy=0;entryPerimeter=0;fontSize=11;" parent="1" source="2" target="15" edge="1">
                    <mxGeometry relative="1" as="geometry">
                        <Array as="points"/>
                    </mxGeometry>
                </mxCell>
                <mxCell id="20" value="{" style="edgeStyle=none;html=1;fontSize=11;" parent="1" source="2" target="18" edge="1">
                    <mxGeometry relative="1" as="geometry"/>
                </mxCell>
                <mxCell id="21" value="}" style="edgeStyle=none;html=1;fontSize=11;" parent="1" source="2" target="19" edge="1">
                    <mxGeometry relative="1" as="geometry"/>
                </mxCell>
                <mxCell id="37" value="a-z, A-Z, _" style="edgeStyle=none;html=1;entryX=0;entryY=0;entryDx=0;entryDy=0;fontSize=9;" edge="1" parent="1" source="2" target="23">
                    <mxGeometry x="0.4754" y="-1" relative="1" as="geometry">
                        <mxPoint as="offset"/>
                    </mxGeometry>
                </mxCell>
                <mxCell id="38" value="?" style="edgeStyle=none;html=1;entryX=1;entryY=0;entryDx=0;entryDy=0;fontSize=11;" edge="1" parent="1" source="2" target="24">
                    <mxGeometry relative="1" as="geometry">
                        <Array as="points">
                            <mxPoint x="-750" y="100"/>
                        </Array>
                    </mxGeometry>
                </mxCell>
                <mxCell id="39" value="&amp;gt;" style="edgeStyle=none;html=1;entryX=0;entryY=0;entryDx=0;entryDy=0;fontSize=11;" edge="1" parent="1" source="2" target="25">
                    <mxGeometry relative="1" as="geometry"/>
                </mxCell>
                <mxCell id="40" value="&amp;lt;" style="edgeStyle=none;html=1;entryX=-0.046;entryY=0.373;entryDx=0;entryDy=0;entryPerimeter=0;fontSize=11;" edge="1" parent="1" source="2" target="34">
                    <mxGeometry relative="1" as="geometry"/>
                </mxCell>
                <mxCell id="41" value="." style="edgeStyle=none;html=1;entryX=0;entryY=0.5;entryDx=0;entryDy=0;fontSize=11;" edge="1" parent="1" source="2" target="27">
                    <mxGeometry relative="1" as="geometry"/>
                </mxCell>
                <mxCell id="42" value="," style="edgeStyle=none;html=1;entryX=0;entryY=0.5;entryDx=0;entryDy=0;fontSize=11;" edge="1" parent="1" source="2" target="28">
                    <mxGeometry relative="1" as="geometry"/>
                </mxCell>
                <mxCell id="43" value="+" style="edgeStyle=none;html=1;entryX=-0.002;entryY=0.775;entryDx=0;entryDy=0;entryPerimeter=0;fontSize=11;" edge="1" parent="1" source="2" target="29">
                    <mxGeometry relative="1" as="geometry"/>
                </mxCell>
                <mxCell id="44" value="-" style="edgeStyle=none;html=1;entryX=-0.024;entryY=0.699;entryDx=0;entryDy=0;entryPerimeter=0;fontSize=11;" edge="1" parent="1" source="2" target="30">
                    <mxGeometry relative="1" as="geometry"/>
                </mxCell>
                <mxCell id="45" value="/" style="edgeStyle=none;html=1;entryX=0;entryY=0.75;entryDx=0;entryDy=0;entryPerimeter=0;fontSize=11;" edge="1" parent="1" source="2" target="32">
                    <mxGeometry relative="1" as="geometry"/>
                </mxCell>
                <mxCell id="46" value="*" style="edgeStyle=none;html=1;entryX=0.02;entryY=0.655;entryDx=0;entryDy=0;entryPerimeter=0;fontSize=11;" edge="1" parent="1" source="2" target="33">
                    <mxGeometry relative="1" as="geometry"/>
                </mxCell>
                <mxCell id="51" value="$" style="edgeStyle=none;html=1;entryX=0;entryY=1;entryDx=0;entryDy=0;fontSize=11;" edge="1" parent="1" source="2" target="50">
                    <mxGeometry relative="1" as="geometry"/>
                </mxCell>
                <mxCell id="77" value="0-9" style="edgeStyle=none;html=1;exitX=0;exitY=0;exitDx=0;exitDy=0;entryX=0.789;entryY=1.021;entryDx=0;entryDy=0;entryPerimeter=0;fontSize=11;" edge="1" parent="1" source="2" target="59">
                    <mxGeometry x="0.0265" y="1" relative="1" as="geometry">
                        <mxPoint as="offset"/>
                    </mxGeometry>
                </mxCell>
                <mxCell id="108" value="&quot;" style="edgeStyle=none;html=1;entryX=0.996;entryY=0.739;entryDx=0;entryDy=0;entryPerimeter=0;fontSize=11;" edge="1" parent="1" source="2" target="26">
                    <mxGeometry relative="1" as="geometry"/>
                </mxCell>
                <mxCell id="2" value="init_s" style="ellipse;whiteSpace=wrap;html=1;aspect=fixed;strokeWidth=1;fontSize=23;fillColor=#0050ef;fontColor=#ffffff;strokeColor=#001DBC;" parent="1" vertex="1">
                    <mxGeometry x="-720" y="10" width="83" height="83" as="geometry"/>
                </mxCell>
                <mxCell id="3" value="identifier_func_f_s" style="ellipse;whiteSpace=wrap;html=1;aspect=fixed;fontSize=4;fontStyle=0;strokeWidth=3;perimeterSpacing=0;fillColor=#008a00;fontColor=#ffffff;strokeColor=#005700;" parent="1" vertex="1">
                    <mxGeometry x="-698.5" y="-100" width="40" height="40" as="geometry"/>
                </mxCell>
                <mxCell id="99" value="=" style="edgeStyle=none;html=1;entryX=0.5;entryY=0;entryDx=0;entryDy=0;fontSize=10;" edge="1" parent="1" source="8" target="98">
                    <mxGeometry relative="1" as="geometry"/>
                </mxCell>
                <mxCell id="8" value="equals_f_s" style="ellipse;whiteSpace=wrap;html=1;aspect=fixed;strokeWidth=3;fontSize=6;fillColor=#008a00;fontColor=#ffffff;strokeColor=#005700;" parent="1" vertex="1">
                    <mxGeometry x="-737" y="210" width="40" height="40" as="geometry"/>
                </mxCell>
                <mxCell id="10" value="colon_f_s" style="ellipse;whiteSpace=wrap;html=1;aspect=fixed;strokeWidth=3;fontSize=6;fillColor=#008a00;fontColor=#ffffff;strokeColor=#005700;" parent="1" vertex="1">
                    <mxGeometry x="-687" y="210" width="40" height="40" as="geometry"/>
                </mxCell>
                <mxCell id="12" value="semicolon_f_s" style="ellipse;whiteSpace=wrap;html=1;aspect=fixed;strokeWidth=3;fontSize=5;fillColor=#008a00;fontColor=#ffffff;strokeColor=#005700;" parent="1" vertex="1">
                    <mxGeometry x="-637" y="210" width="40" height="40" as="geometry"/>
                </mxCell>
                <mxCell id="14" value="left_par_f_s" style="ellipse;whiteSpace=wrap;html=1;aspect=fixed;strokeWidth=3;fontSize=5;fillColor=#008a00;fontColor=#ffffff;strokeColor=#005700;" parent="1" vertex="1">
                    <mxGeometry x="-587" y="210" width="40" height="40" as="geometry"/>
                </mxCell>
                <mxCell id="15" value="right_par_f_s" style="ellipse;whiteSpace=wrap;html=1;aspect=fixed;strokeWidth=3;fontSize=5;fillColor=#008a00;fontColor=#ffffff;strokeColor=#005700;" parent="1" vertex="1">
                    <mxGeometry x="-537" y="210" width="40" height="40" as="geometry"/>
                </mxCell>
                <mxCell id="18" value="left_curly_f_s" style="ellipse;whiteSpace=wrap;html=1;aspect=fixed;strokeWidth=3;fontSize=5;fillColor=#008a00;fontColor=#ffffff;strokeColor=#005700;" parent="1" vertex="1">
                    <mxGeometry x="-490" y="210" width="40" height="40" as="geometry"/>
                </mxCell>
                <mxCell id="19" value="right_curly_f_s" style="ellipse;whiteSpace=wrap;html=1;aspect=fixed;strokeWidth=3;fontSize=5;fillColor=#008a00;fontColor=#ffffff;strokeColor=#005700;" parent="1" vertex="1">
                    <mxGeometry x="-440" y="210" width="40" height="40" as="geometry"/>
                </mxCell>
                <mxCell id="23" value="identifier_func_f_s" style="ellipse;whiteSpace=wrap;html=1;aspect=fixed;strokeWidth=3;fontSize=4;fillColor=#008a00;fontColor=#ffffff;strokeColor=#005700;" vertex="1" parent="1">
                    <mxGeometry x="-390" y="210" width="40" height="40" as="geometry"/>
                </mxCell>
                <mxCell id="107" value="&amp;gt;" style="edgeStyle=none;html=1;fontSize=11;" edge="1" parent="1" source="24" target="2">
                    <mxGeometry relative="1" as="geometry">
                        <Array as="points">
                            <mxPoint x="-720" y="120"/>
                        </Array>
                    </mxGeometry>
                </mxCell>
                <mxCell id="24" value="null_f_s" style="ellipse;whiteSpace=wrap;html=1;aspect=fixed;strokeWidth=3;fontSize=8;fillColor=#008a00;fontColor=#ffffff;strokeColor=#005700;" vertex="1" parent="1">
                    <mxGeometry x="-800" y="130" width="40" height="40" as="geometry"/>
                </mxCell>
                <mxCell id="104" value="=" style="edgeStyle=none;html=1;entryX=0;entryY=0.5;entryDx=0;entryDy=0;fontSize=11;" edge="1" parent="1" source="25" target="102">
                    <mxGeometry relative="1" as="geometry"/>
                </mxCell>
                <mxCell id="25" value="greater_than_f_s" style="ellipse;whiteSpace=wrap;html=1;aspect=fixed;strokeWidth=3;fontSize=5;fillColor=#008a00;fontColor=#ffffff;strokeColor=#005700;" vertex="1" parent="1">
                    <mxGeometry x="-340" y="210" width="40" height="40" as="geometry"/>
                </mxCell>
                <mxCell id="110" value="&quot;" style="edgeStyle=none;html=1;entryX=0.5;entryY=0;entryDx=0;entryDy=0;fontSize=11;" edge="1" parent="1" source="26" target="109">
                    <mxGeometry relative="1" as="geometry"/>
                </mxCell>
                <mxCell id="140" value="\" style="edgeStyle=none;html=1;exitX=1;exitY=0;exitDx=0;exitDy=0;entryX=1;entryY=1;entryDx=0;entryDy=0;fontSize=11;" edge="1" parent="1" source="26" target="66">
                    <mxGeometry relative="1" as="geometry">
                        <Array as="points">
                            <mxPoint x="-810" y="-70"/>
                        </Array>
                    </mxGeometry>
                </mxCell>
                <mxCell id="26" value="string_lit_s" style="ellipse;whiteSpace=wrap;html=1;aspect=fixed;strokeWidth=1;fontSize=7;fillColor=#a20025;fontColor=#ffffff;strokeColor=#6F0000;" vertex="1" parent="1">
                    <mxGeometry x="-910" y="-45" width="40" height="40" as="geometry"/>
                </mxCell>
                <mxCell id="27" value="concatenation_f_s" style="ellipse;whiteSpace=wrap;html=1;aspect=fixed;strokeWidth=3;fontSize=4;fillColor=#008a00;fontColor=#ffffff;strokeColor=#005700;" vertex="1" parent="1">
                    <mxGeometry x="-340" y="110" width="40" height="40" as="geometry"/>
                </mxCell>
                <mxCell id="28" value="comma_f_s" style="ellipse;whiteSpace=wrap;html=1;aspect=fixed;strokeWidth=3;fontSize=6;fillColor=#008a00;fontColor=#ffffff;strokeColor=#005700;" vertex="1" parent="1">
                    <mxGeometry x="-340" y="60" width="40" height="40" as="geometry"/>
                </mxCell>
                <mxCell id="29" value="plus_f_s" style="ellipse;whiteSpace=wrap;html=1;aspect=fixed;strokeWidth=3;fontSize=7;fillColor=#008a00;fontColor=#ffffff;strokeColor=#005700;" vertex="1" parent="1">
                    <mxGeometry x="-340" y="10" width="40" height="40" as="geometry"/>
                </mxCell>
                <mxCell id="30" value="minus_f_s" style="ellipse;whiteSpace=wrap;html=1;aspect=fixed;strokeWidth=3;fontSize=7;fillColor=#008a00;fontColor=#ffffff;strokeColor=#005700;" vertex="1" parent="1">
                    <mxGeometry x="-340" y="-40" width="40" height="40" as="geometry"/>
                </mxCell>
                <mxCell id="115" value="/" style="edgeStyle=none;html=1;entryX=0;entryY=0.5;entryDx=0;entryDy=0;fontSize=11;" edge="1" parent="1" source="32" target="114">
                    <mxGeometry relative="1" as="geometry"/>
                </mxCell>
                <mxCell id="119" value="*" style="edgeStyle=none;html=1;entryX=0.05;entryY=0.85;entryDx=0;entryDy=0;entryPerimeter=0;fontSize=11;" edge="1" parent="1" source="32" target="117">
                    <mxGeometry relative="1" as="geometry"/>
                </mxCell>
                <mxCell id="32" value="division_f_s" style="ellipse;whiteSpace=wrap;html=1;aspect=fixed;strokeWidth=3;fontSize=7;fillColor=#008a00;fontColor=#ffffff;strokeColor=#005700;" vertex="1" parent="1">
                    <mxGeometry x="-340" y="-90" width="40" height="40" as="geometry"/>
                </mxCell>
                <mxCell id="33" value="multiplication_f_s" style="ellipse;whiteSpace=wrap;html=1;aspect=fixed;strokeWidth=3;fontSize=5;fillColor=#008a00;fontColor=#ffffff;strokeColor=#005700;" vertex="1" parent="1">
                    <mxGeometry x="-340" y="-140" width="40" height="40" as="geometry"/>
                </mxCell>
                <mxCell id="105" value="=" style="edgeStyle=none;html=1;entryX=-0.066;entryY=0.513;entryDx=0;entryDy=0;entryPerimeter=0;fontSize=11;" edge="1" parent="1" source="34" target="103">
                    <mxGeometry relative="1" as="geometry"/>
                </mxCell>
                <mxCell id="34" value="lesser_than_f_s" style="ellipse;whiteSpace=wrap;html=1;aspect=fixed;strokeWidth=3;fontSize=5;fillColor=#008a00;fontColor=#ffffff;strokeColor=#005700;" vertex="1" parent="1">
                    <mxGeometry x="-340" y="160" width="40" height="40" as="geometry"/>
                </mxCell>
                <mxCell id="48" value="a-z, A-Z, 0-9" style="edgeStyle=none;html=1;entryX=0.986;entryY=0.704;entryDx=0;entryDy=0;entryPerimeter=0;fontSize=11;" edge="1" parent="1" source="3" target="3">
                    <mxGeometry relative="1" as="geometry">
                        <Array as="points">
                            <mxPoint x="-600" y="-70"/>
                        </Array>
                    </mxGeometry>
                </mxCell>
                <mxCell id="49" value="whitespace" style="edgeStyle=none;html=1;fontSize=11;" edge="1" parent="1" source="2" target="2">
                    <mxGeometry x="0.297" y="7" relative="1" as="geometry">
                        <Array as="points">
                            <mxPoint x="-770" y="40"/>
                            <mxPoint x="-790" y="40"/>
                            <mxPoint x="-820" y="52"/>
                            <mxPoint x="-770" y="60"/>
                        </Array>
                        <mxPoint as="offset"/>
                    </mxGeometry>
                </mxCell>
                <mxCell id="53" value="a-z, A-Z, 0-9, _" style="edgeStyle=none;html=1;entryX=1;entryY=1;entryDx=0;entryDy=0;fontSize=11;" edge="1" parent="1" source="50" target="52">
                    <mxGeometry relative="1" as="geometry"/>
                </mxCell>
                <mxCell id="50" value="identifier_var_dollar_s" style="ellipse;whiteSpace=wrap;html=1;aspect=fixed;strokeWidth=1;fontSize=4;fillColor=#a20025;fontColor=#ffffff;strokeColor=#6F0000;" vertex="1" parent="1">
                    <mxGeometry x="-530" y="-120" width="40" height="40" as="geometry"/>
                </mxCell>
                <mxCell id="52" value="identifier_var_s" style="ellipse;whiteSpace=wrap;html=1;aspect=fixed;strokeWidth=3;fontSize=4;fillColor=#008a00;fontColor=#ffffff;strokeColor=#005700;" vertex="1" parent="1">
                    <mxGeometry x="-648.5" y="-190" width="40" height="40" as="geometry"/>
                </mxCell>
                <mxCell id="54" value="a-z, A-Z, 0-9, _" style="edgeStyle=none;html=1;fontSize=11;" edge="1" parent="1" source="52" target="52">
                    <mxGeometry relative="1" as="geometry">
                        <Array as="points">
                            <mxPoint x="-490" y="-160"/>
                        </Array>
                    </mxGeometry>
                </mxCell>
                <mxCell id="56" value="eps - {&quot;, \}" style="edgeStyle=none;html=1;entryX=0.038;entryY=0.288;entryDx=0;entryDy=0;fontSize=11;exitX=0;exitY=0;exitDx=0;exitDy=0;entryPerimeter=0;" edge="1" parent="1" source="26" target="26">
                    <mxGeometry x="-0.3276" y="7" relative="1" as="geometry">
                        <Array as="points">
                            <mxPoint x="-940" y="-80"/>
                            <mxPoint x="-960" y="-60"/>
                        </Array>
                        <mxPoint as="offset"/>
                    </mxGeometry>
                </mxCell>
                <mxCell id="62" value="e" style="edgeStyle=none;html=1;entryX=0.5;entryY=1;entryDx=0;entryDy=0;fontSize=11;" edge="1" parent="1" source="59" target="82">
                    <mxGeometry relative="1" as="geometry">
                        <mxPoint x="-834.1421356237308" y="-255.8578643762687" as="targetPoint"/>
                    </mxGeometry>
                </mxCell>
                <mxCell id="112" value="." style="edgeStyle=none;html=1;fontSize=11;exitX=0.761;exitY=0.036;exitDx=0;exitDy=0;exitPerimeter=0;" edge="1" parent="1" source="59" target="79">
                    <mxGeometry relative="1" as="geometry">
                        <Array as="points">
                            <mxPoint x="-780" y="-160"/>
                        </Array>
                    </mxGeometry>
                </mxCell>
                <mxCell id="59" value="integer_lit_f_s" style="ellipse;whiteSpace=wrap;html=1;aspect=fixed;fontSize=6;fontStyle=0;strokeWidth=3;perimeterSpacing=0;fillColor=#008a00;fontColor=#ffffff;strokeColor=#005700;" vertex="1" parent="1">
                    <mxGeometry x="-840" y="-160" width="40" height="40" as="geometry"/>
                </mxCell>
                <mxCell id="63" value="e" style="edgeStyle=none;html=1;fontSize=11;entryX=1;entryY=0.5;entryDx=0;entryDy=0;" edge="1" parent="1" source="60" target="82">
                    <mxGeometry relative="1" as="geometry">
                        <mxPoint x="-806" y="-250" as="targetPoint"/>
                    </mxGeometry>
                </mxCell>
                <mxCell id="113" value="+, -" style="edgeStyle=none;html=1;entryX=-0.027;entryY=0.65;entryDx=0;entryDy=0;entryPerimeter=0;fontSize=11;exitX=0.5;exitY=0;exitDx=0;exitDy=0;" edge="1" parent="1" source="82" target="83">
                    <mxGeometry x="-0.3649" y="1" relative="1" as="geometry">
                        <mxPoint as="offset"/>
                    </mxGeometry>
                </mxCell>
                <mxCell id="60" value="float_lit_f_s" style="ellipse;whiteSpace=wrap;html=1;aspect=fixed;fontSize=6;fontStyle=0;strokeWidth=3;perimeterSpacing=0;fillColor=#008a00;fontColor=#ffffff;strokeColor=#005700;" vertex="1" parent="1">
                    <mxGeometry x="-750" y="-280" width="40" height="40" as="geometry"/>
                </mxCell>
                <mxCell id="69" value="x" style="edgeStyle=none;html=1;entryX=1;entryY=0;entryDx=0;entryDy=0;fontSize=11;exitX=0;exitY=1;exitDx=0;exitDy=0;" edge="1" parent="1" source="66" target="68">
                    <mxGeometry x="0.25" relative="1" as="geometry">
                        <mxPoint as="offset"/>
                    </mxGeometry>
                </mxCell>
                <mxCell id="70" value="eps - {x, 0-7}" style="edgeStyle=none;html=1;fontSize=11;" edge="1" parent="1" source="66" target="26">
                    <mxGeometry relative="1" as="geometry">
                        <Array as="points">
                            <mxPoint x="-870" y="-80"/>
                        </Array>
                    </mxGeometry>
                </mxCell>
                <mxCell id="92" value="0-7" style="edgeStyle=none;html=1;entryX=1;entryY=0.5;entryDx=0;entryDy=0;fontSize=9;" edge="1" parent="1" source="66" target="90">
                    <mxGeometry relative="1" as="geometry"/>
                </mxCell>
                <mxCell id="141" value="\" style="edgeStyle=none;html=1;fontSize=11;entryX=1;entryY=0.5;entryDx=0;entryDy=0;exitX=1;exitY=0.5;exitDx=0;exitDy=0;" edge="1" parent="1" source="66" target="26">
                    <mxGeometry x="0.1613" y="-5" relative="1" as="geometry">
                        <mxPoint x="-790" y="-80" as="targetPoint"/>
                        <Array as="points">
                            <mxPoint x="-790" y="-70"/>
                        </Array>
                        <mxPoint as="offset"/>
                    </mxGeometry>
                </mxCell>
                <mxCell id="66" value="string_lit_backslash_s" style="ellipse;whiteSpace=wrap;html=1;aspect=fixed;strokeWidth=1;fontSize=4;fillColor=#a20025;fontColor=#ffffff;strokeColor=#6F0000;" vertex="1" parent="1">
                    <mxGeometry x="-910" y="-160" width="40" height="40" as="geometry"/>
                </mxCell>
                <mxCell id="73" value="a-f, A-F, 0-9" style="edgeStyle=none;html=1;entryX=0;entryY=0.25;entryDx=0;entryDy=0;fontSize=11;entryPerimeter=0;" edge="1" parent="1" source="68" target="72">
                    <mxGeometry relative="1" as="geometry"/>
                </mxCell>
                <mxCell id="74" value="eps - {a-f, A-F, 0-9}" style="edgeStyle=none;html=1;fontSize=11;" edge="1" parent="1" source="68">
                    <mxGeometry relative="1" as="geometry">
                        <mxPoint x="-910" y="-20" as="targetPoint"/>
                        <Array as="points"/>
                    </mxGeometry>
                </mxCell>
                <mxCell id="68" value="string_lit_backslash_x_s" style="ellipse;whiteSpace=wrap;html=1;aspect=fixed;strokeWidth=1;fontSize=4;fillColor=#a20025;fontColor=#ffffff;strokeColor=#6F0000;" vertex="1" parent="1">
                    <mxGeometry x="-1070" y="-50" width="40" height="40" as="geometry"/>
                </mxCell>
                <mxCell id="75" value="eps" style="edgeStyle=none;html=1;entryX=0.31;entryY=0.938;entryDx=0;entryDy=0;fontSize=11;entryPerimeter=0;exitX=1.004;exitY=0.303;exitDx=0;exitDy=0;exitPerimeter=0;" edge="1" parent="1" source="72" target="26">
                    <mxGeometry relative="1" as="geometry">
                        <mxPoint x="-1000" y="70" as="sourcePoint"/>
                        <Array as="points"/>
                    </mxGeometry>
                </mxCell>
                <mxCell id="72" value="string_lit_backslash_x_1_s" style="ellipse;whiteSpace=wrap;html=1;aspect=fixed;strokeWidth=1;fontSize=4;fillColor=#a20025;fontColor=#ffffff;strokeColor=#6F0000;" vertex="1" parent="1">
                    <mxGeometry x="-990" y="40" width="40" height="40" as="geometry"/>
                </mxCell>
                <mxCell id="78" value="0-9" style="edgeStyle=none;html=1;entryX=1.061;entryY=0.693;entryDx=0;entryDy=0;entryPerimeter=0;fontSize=11;" edge="1" parent="1" source="59" target="59">
                    <mxGeometry relative="1" as="geometry"/>
                </mxCell>
                <mxCell id="80" value="0-9" style="edgeStyle=none;html=1;entryX=0.415;entryY=1.015;entryDx=0;entryDy=0;entryPerimeter=0;fontSize=11;" edge="1" parent="1" source="79" target="60">
                    <mxGeometry relative="1" as="geometry"/>
                </mxCell>
                <mxCell id="79" value="float_lit_dot_s" style="ellipse;whiteSpace=wrap;html=1;aspect=fixed;strokeWidth=1;fontSize=7;fillColor=#a20025;fontColor=#ffffff;strokeColor=#6F0000;" vertex="1" parent="1">
                    <mxGeometry x="-750" y="-180" width="40" height="40" as="geometry"/>
                </mxCell>
                <mxCell id="87" value="0-9" style="edgeStyle=none;html=1;entryX=0;entryY=0;entryDx=0;entryDy=0;fontSize=11;exitX=0.893;exitY=0.242;exitDx=0;exitDy=0;exitPerimeter=0;" edge="1" parent="1" source="82" target="84">
                    <mxGeometry relative="1" as="geometry">
                        <mxPoint x="-648.5048628572423" y="-323.58457307075037" as="sourcePoint"/>
                        <Array as="points">
                            <mxPoint x="-710" y="-300"/>
                        </Array>
                    </mxGeometry>
                </mxCell>
                <mxCell id="82" value="float_lit_e_s" style="ellipse;whiteSpace=wrap;html=1;aspect=fixed;strokeWidth=1;fontSize=7;fillColor=#a20025;fontColor=#ffffff;strokeColor=#6F0000;" vertex="1" parent="1">
                    <mxGeometry x="-840" y="-280" width="40" height="40" as="geometry"/>
                </mxCell>
                <mxCell id="88" value="0-9" style="edgeStyle=none;html=1;entryX=0.402;entryY=0.021;entryDx=0;entryDy=0;fontSize=11;entryPerimeter=0;" edge="1" parent="1" source="83" target="84">
                    <mxGeometry relative="1" as="geometry"/>
                </mxCell>
                <mxCell id="83" value="float_lit_sign_s" style="ellipse;whiteSpace=wrap;html=1;aspect=fixed;strokeWidth=1;fontSize=7;fillColor=#a20025;fontColor=#ffffff;strokeColor=#6F0000;" vertex="1" parent="1">
                    <mxGeometry x="-737" y="-350" width="40" height="40" as="geometry"/>
                </mxCell>
                <mxCell id="84" value="float_lit_exp_f_s" style="ellipse;whiteSpace=wrap;html=1;aspect=fixed;fontSize=6;fontStyle=0;strokeWidth=3;perimeterSpacing=0;fillColor=#008a00;fontColor=#ffffff;strokeColor=#005700;" vertex="1" parent="1">
                    <mxGeometry x="-619.93" y="-280" width="40" height="40" as="geometry"/>
                </mxCell>
                <mxCell id="86" value="0-9" style="edgeStyle=none;html=1;entryX=0.964;entryY=0.664;entryDx=0;entryDy=0;entryPerimeter=0;fontSize=11;" edge="1" parent="1" source="84" target="84">
                    <mxGeometry relative="1" as="geometry">
                        <Array as="points">
                            <mxPoint x="-522.93" y="-260"/>
                        </Array>
                    </mxGeometry>
                </mxCell>
                <mxCell id="89" value="a-z, A-Z, 0-9, _" style="edgeStyle=none;html=1;entryX=0.72;entryY=0.975;entryDx=0;entryDy=0;fontSize=9;entryPerimeter=0;exitX=0.18;exitY=0.935;exitDx=0;exitDy=0;exitPerimeter=0;" edge="1" parent="1" source="23" target="23">
                    <mxGeometry relative="1" as="geometry">
                        <Array as="points">
                            <mxPoint x="-390" y="310"/>
                            <mxPoint x="-350" y="310"/>
                        </Array>
                    </mxGeometry>
                </mxCell>
                <mxCell id="93" value="0-7" style="edgeStyle=none;html=1;entryX=1;entryY=0;entryDx=0;entryDy=0;fontSize=9;" edge="1" parent="1" source="90" target="91">
                    <mxGeometry relative="1" as="geometry"/>
                </mxCell>
                <mxCell id="94" value="eps - {0-7}" style="edgeStyle=none;html=1;fontSize=9;entryX=0.5;entryY=0;entryDx=0;entryDy=0;" edge="1" parent="1" source="90" target="26">
                    <mxGeometry x="-0.5512" y="-4" relative="1" as="geometry">
                        <mxPoint as="offset"/>
                    </mxGeometry>
                </mxCell>
                <mxCell id="90" value="string_lit_backslash_1_s" style="ellipse;whiteSpace=wrap;html=1;aspect=fixed;strokeWidth=1;fontSize=4;fillColor=#a20025;fontColor=#ffffff;strokeColor=#6F0000;" vertex="1" parent="1">
                    <mxGeometry x="-1010" y="-250" width="40" height="40" as="geometry"/>
                </mxCell>
                <mxCell id="138" value="eps" style="edgeStyle=none;html=1;entryX=0.8;entryY=0.988;entryDx=0;entryDy=0;fontSize=11;entryPerimeter=0;" edge="1" parent="1" source="91" target="26">
                    <mxGeometry relative="1" as="geometry">
                        <Array as="points">
                            <mxPoint x="-1040" y="150"/>
                            <mxPoint x="-904" y="150"/>
                            <mxPoint x="-830" y="100"/>
                        </Array>
                    </mxGeometry>
                </mxCell>
                <mxCell id="91" value="string_lit_backslash_2_s" style="ellipse;whiteSpace=wrap;html=1;aspect=fixed;strokeWidth=1;fontSize=4;fillColor=#a20025;fontColor=#ffffff;strokeColor=#6F0000;" vertex="1" parent="1">
                    <mxGeometry x="-1140" y="-90" width="40" height="40" as="geometry"/>
                </mxCell>
                <mxCell id="101" value="=" style="edgeStyle=none;html=1;entryX=0.5;entryY=1;entryDx=0;entryDy=0;fontSize=10;" edge="1" parent="1" source="98" target="100">
                    <mxGeometry x="-0.1678" relative="1" as="geometry">
                        <Array as="points">
                            <mxPoint x="-680" y="320"/>
                        </Array>
                        <mxPoint as="offset"/>
                    </mxGeometry>
                </mxCell>
                <mxCell id="98" value="eq_2_s" style="ellipse;whiteSpace=wrap;html=1;aspect=fixed;strokeWidth=1;fontSize=10;fillColor=#a20025;fontColor=#ffffff;strokeColor=#6F0000;" vertex="1" parent="1">
                    <mxGeometry x="-737" y="300" width="40" height="40" as="geometry"/>
                </mxCell>
                <mxCell id="100" value="eq_f_s" style="ellipse;whiteSpace=wrap;html=1;aspect=fixed;strokeWidth=3;fontSize=11;fillColor=#008a00;fontColor=#ffffff;strokeColor=#005700;" vertex="1" parent="1">
                    <mxGeometry x="-688.5" y="260" width="40" height="40" as="geometry"/>
                </mxCell>
                <mxCell id="102" value="greater_eq_f_s" style="ellipse;whiteSpace=wrap;html=1;aspect=fixed;strokeWidth=3;fontSize=5;fillColor=#008a00;fontColor=#ffffff;strokeColor=#005700;" vertex="1" parent="1">
                    <mxGeometry x="-250" y="210" width="40" height="40" as="geometry"/>
                </mxCell>
                <mxCell id="103" value="lesser_eq_f_s" style="ellipse;whiteSpace=wrap;html=1;aspect=fixed;strokeWidth=3;fontSize=5;fillColor=#008a00;fontColor=#ffffff;strokeColor=#005700;" vertex="1" parent="1">
                    <mxGeometry x="-250" y="160" width="40" height="40" as="geometry"/>
                </mxCell>
                <mxCell id="109" value="string_lit_f_s" style="ellipse;whiteSpace=wrap;html=1;aspect=fixed;fontSize=6;fontStyle=0;strokeWidth=3;perimeterSpacing=0;fillColor=#008a00;fontColor=#ffffff;strokeColor=#005700;" vertex="1" parent="1">
                    <mxGeometry x="-910" y="50" width="40" height="40" as="geometry"/>
                </mxCell>
                <mxCell id="111" value="0-9" style="edgeStyle=none;html=1;entryX=1;entryY=0.5;entryDx=0;entryDy=0;fontSize=11;" edge="1" parent="1" source="60" target="60">
                    <mxGeometry relative="1" as="geometry">
                        <Array as="points">
                            <mxPoint x="-690" y="-260"/>
                        </Array>
                    </mxGeometry>
                </mxCell>
                <mxCell id="129" value="\n" style="edgeStyle=none;html=1;fontSize=11;" edge="1" parent="1" source="114" target="2">
                    <mxGeometry relative="1" as="geometry">
                        <Array as="points">
                            <mxPoint x="-290"/>
                        </Array>
                    </mxGeometry>
                </mxCell>
                <mxCell id="114" value="com_line_f_s" style="ellipse;whiteSpace=wrap;html=1;aspect=fixed;strokeWidth=3;fontSize=7;fillColor=#008a00;fontColor=#ffffff;strokeColor=#005700;" vertex="1" parent="1">
                    <mxGeometry x="-260" y="-90" width="40" height="40" as="geometry"/>
                </mxCell>
                <mxCell id="122" value="*" style="edgeStyle=none;html=1;entryX=0;entryY=0.5;entryDx=0;entryDy=0;fontSize=10;" edge="1" parent="1" source="117" target="121">
                    <mxGeometry relative="1" as="geometry"/>
                </mxCell>
                <mxCell id="117" value="com_block_s" style="ellipse;whiteSpace=wrap;html=1;aspect=fixed;strokeWidth=1;fontSize=7;fillColor=#a20025;fontColor=#ffffff;strokeColor=#6F0000;" vertex="1" parent="1">
                    <mxGeometry x="-260" y="-140" width="40" height="40" as="geometry"/>
                </mxCell>
                <mxCell id="124" value="/" style="edgeStyle=none;html=1;fontSize=11;" edge="1" parent="1" source="121" target="2">
                    <mxGeometry relative="1" as="geometry">
                        <Array as="points">
                            <mxPoint x="-300" y="-190"/>
                        </Array>
                    </mxGeometry>
                </mxCell>
                <mxCell id="136" value="eps - {/}" style="edgeStyle=none;html=1;fontSize=11;" edge="1" parent="1" source="121" target="117">
                    <mxGeometry x="-0.1218" relative="1" as="geometry">
                        <Array as="points">
                            <mxPoint x="-180" y="-100"/>
                        </Array>
                        <mxPoint as="offset"/>
                    </mxGeometry>
                </mxCell>
                <mxCell id="121" value="com_block_ast_s" style="ellipse;whiteSpace=wrap;html=1;aspect=fixed;strokeWidth=1;fontSize=5;fillColor=#a20025;fontColor=#ffffff;strokeColor=#6F0000;" vertex="1" parent="1">
                    <mxGeometry x="-150" y="-140" width="40" height="40" as="geometry"/>
                </mxCell>
                <mxCell id="132" value="a-z, A-Z" style="edgeStyle=none;html=1;fontSize=11;entryX=0.012;entryY=0.754;entryDx=0;entryDy=0;entryPerimeter=0;exitX=0;exitY=0;exitDx=0;exitDy=0;" edge="1" parent="1" source="24" target="24">
                    <mxGeometry relative="1" as="geometry">
                        <Array as="points">
                            <mxPoint x="-860" y="130"/>
                            <mxPoint x="-860" y="150"/>
                            <mxPoint x="-860" y="160"/>
                        </Array>
                    </mxGeometry>
                </mxCell>
                <mxCell id="133" value="eps - {\n}" style="edgeStyle=none;html=1;entryX=1;entryY=0.75;entryDx=0;entryDy=0;entryPerimeter=0;fontSize=11;" edge="1" parent="1" source="114" target="114">
                    <mxGeometry relative="1" as="geometry">
                        <Array as="points">
                            <mxPoint x="-170" y="-70"/>
                        </Array>
                    </mxGeometry>
                </mxCell>
                <mxCell id="135" value="eps - {*}" style="edgeStyle=none;html=1;fontSize=11;exitX=0;exitY=0.25;exitDx=0;exitDy=0;entryX=0;entryY=0;entryDx=0;entryDy=0;exitPerimeter=0;" edge="1" parent="1" source="117" target="117">
                    <mxGeometry x="-0.5268" y="-4" relative="1" as="geometry">
                        <Array as="points">
                            <mxPoint x="-300" y="-160"/>
                            <mxPoint x="-290" y="-170"/>
                            <mxPoint x="-280" y="-170"/>
                        </Array>
                        <mxPoint as="offset"/>
                    </mxGeometry>
                </mxCell>
            </root>
        </mxGraphModel>
    </diagram>
</mxfile>